<?xml version="1.0" encoding="UTF-8"?>
<svg width="24px" height="24px" viewBox="0 0 24 24" version="1.1" xmlns="http://www.w3.org/2000/svg" xmlns:xlink="http://www.w3.org/1999/xlink">
    <title>receipt</title>
    <g id="receipt" stroke="none" fill="none" fill-rule="evenodd" stroke-linecap="round" stroke-linejoin="round" stroke-width="1">
        <g id="Group" stroke="#000000">
            <polygon id="Path" stroke-width="1.5" points="4 2 4 22 6 21 8 22 10 21 12 22 14 21 16 22 18 21 20 22 20 2 18 3 16 2 14 3 12 2 10 3 8 2 6 3"></polygon>
            <path d="M16,8 L10,8 C8.8954305,8 8,8.8954305 8,10 C8,11.1045695 8.8954305,12 10,12 L14,12 C15.1045695,12 16,12.8954305 16,14 C16,15.1045695 15.1045695,16 14,16 L8,16" id="Path" stroke-width="1.5"></path>
            <line x1="12" y1="17" x2="12" y2="7" id="Path" stroke-width="1.5"></line>
        </g>
    </g>
</svg>