<?xml version="1.0" encoding="UTF-8"?>
<svg width="24px" height="24px" viewBox="0 0 24 24" version="1.1" xmlns="http://www.w3.org/2000/svg" xmlns:xlink="http://www.w3.org/1999/xlink">
    <title>refund-outline</title>
    <g id="refund-outline" stroke="none" fill="none" fill-rule="evenodd" stroke-width="1">
        <g id="circle-dollar-sign" transform="translate(4, 4)" stroke="#000000">
            <path d="M8.5,17 C13.1944204,17 17,13.1944204 17,8.5 C17,3.80557963 13.1944204,0 8.5,0 C3.80557963,0 0,3.80557963 0,8.5" id="Oval" stroke-width="1.5"></path>
            <g id="Group" transform="translate(3, 4)" stroke-width="1.5">
                <path d="M9,1.81818182 L3.6,1.81818182 C2.60588745,1.81818182 1.8,2.53045608 1.8,3.40909091 C1.8,4.28772574 2.60588745,5 3.6,5 L7.2,5 C8.19411255,5 9,5.71227426 9,6.59090909 C9,7.46954392 8.19411255,8.18181818 7.2,8.18181818 L0,8.18181818" id="Path"></path>
                <line x1="5.5" y1="10" x2="5.5" y2="0" id="Path"></line>
            </g>
        </g>
        <g id="Group" transform="translate(3, 11) rotate(-1) translate(-3, -11)translate(1, 9)" stroke="#000000" stroke-linecap="square">
            <line x1="0.666666667" y1="0.666666667" x2="3.33333333" y2="3.33333333" id="Line" stroke-width="1.8"></line>
        </g>
    </g>
</svg>